solid ascii
 facet normal 0.221582 0.0917822 0.970813
  outer loop
   vertex 0.216942 0 0.450484
   vertex 0.153401 0.153401 0.450484
   vertex 0 0 0.5
  endloop
 endfacet
 facet normal 0.0917822 0.221582 0.970813
  outer loop
   vertex 0.153401 0.153401 0.450484
   vertex 1.32839e-17 0.216942 0.450484
   vertex 0 0 0.5
  endloop
 endfacet
 facet normal -0.0917822 0.221582 0.970813
  outer loop
   vertex 1.32839e-17 0.216942 0.450484
   vertex -0.153401 0.153401 0.450484
   vertex 0 0 0.5
  endloop
 endfacet
 facet normal -0.221582 0.0917822 0.970813
  outer loop
   vertex -0.153401 0.153401 0.450484
   vertex -0.216942 2.65677e-17 0.450484
   vertex 0 0 0.5
  endloop
 endfacet
 facet normal -0.221582 -0.0917822 0.970813
  outer loop
   vertex -0.216942 2.65677e-17 0.450484
   vertex -0.153401 -0.153401 0.450484
   vertex 0 0 0.5
  endloop
 endfacet
 facet normal -0.0917822 -0.221582 0.970813
  outer loop
   vertex -0.153401 -0.153401 0.450484
   vertex -3.98516e-17 -0.216942 0.450484
   vertex 0 0 0.5
  endloop
 endfacet
 facet normal 0.0917822 -0.221582 0.970813
  outer loop
   vertex -3.98516e-17 -0.216942 0.450484
   vertex 0.153401 -0.153401 0.450484
   vertex 0 0 0.5
  endloop
 endfacet
 facet normal 0.221582 -0.0917822 0.970813
  outer loop
   vertex 0.153401 -0.153401 0.450484
   vertex 0.216942 0 0.450484
   vertex 0 0 0.5
  endloop
 endfacet
 facet normal 0.221582 0.0917822 -0.970813
  outer loop
   vertex 0.216942 0 -0.450484
   vertex 0 0 -0.5
   vertex 0.153401 0.153401 -0.450484
  endloop
 endfacet
 facet normal 0.0917822 0.221582 -0.970813
  outer loop
   vertex 0.153401 0.153401 -0.450484
   vertex 0 0 -0.5
   vertex 1.32839e-17 0.216942 -0.450484
  endloop
 endfacet
 facet normal -0.0917822 0.221582 -0.970813
  outer loop
   vertex 1.32839e-17 0.216942 -0.450484
   vertex 0 0 -0.5
   vertex -0.153401 0.153401 -0.450484
  endloop
 endfacet
 facet normal -0.221582 0.0917822 -0.970813
  outer loop
   vertex -0.153401 0.153401 -0.450484
   vertex 0 0 -0.5
   vertex -0.216942 2.65677e-17 -0.450484
  endloop
 endfacet
 facet normal -0.221582 -0.0917822 -0.970813
  outer loop
   vertex -0.216942 2.65677e-17 -0.450484
   vertex 0 0 -0.5
   vertex -0.153401 -0.153401 -0.450484
  endloop
 endfacet
 facet normal -0.0917822 -0.221582 -0.970813
  outer loop
   vertex -0.153401 -0.153401 -0.450484
   vertex 0 0 -0.5
   vertex -3.98516e-17 -0.216942 -0.450484
  endloop
 endfacet
 facet normal 0.0917822 -0.221582 -0.970813
  outer loop
   vertex -3.98516e-17 -0.216942 -0.450484
   vertex 0 0 -0.5
   vertex 0.153401 -0.153401 -0.450484
  endloop
 endfacet
 facet normal 0.221582 -0.0917822 -0.970813
  outer loop
   vertex 0.153401 -0.153401 -0.450484
   vertex 0 0 -0.5
   vertex 0.216942 0 -0.450484
  endloop
 endfacet
 facet normal 0.603683 0.250054 0.756994
  outer loop
   vertex 0.216942 0 0.450484
   vertex 0.390916 0 0.311745
   vertex 0.276419 0.276419 0.311745
  endloop
 endfacet
 facet normal 0.603683 0.250054 0.756994
  outer loop
   vertex 0.216942 0 0.450484
   vertex 0.276419 0.276419 0.311745
   vertex 0.153401 0.153401 0.450484
  endloop
 endfacet
 facet normal 0.844104 0.349639 0.406499
  outer loop
   vertex 0.390916 0 0.311745
   vertex 0.487464 0 0.11126
   vertex 0.344689 0.344689 0.11126
  endloop
 endfacet
 facet normal 0.844104 0.349639 0.406499
  outer loop
   vertex 0.390916 0 0.311745
   vertex 0.344689 0.344689 0.11126
   vertex 0.276419 0.276419 0.311745
  endloop
 endfacet
 facet normal 0.92388 0.382683 -0
  outer loop
   vertex 0.487464 0 0.11126
   vertex 0.487464 0 -0.11126
   vertex 0.344689 0.344689 -0.11126
  endloop
 endfacet
 facet normal 0.92388 0.382683 -0
  outer loop
   vertex 0.487464 0 0.11126
   vertex 0.344689 0.344689 -0.11126
   vertex 0.344689 0.344689 0.11126
  endloop
 endfacet
 facet normal 0.844104 0.349639 -0.406499
  outer loop
   vertex 0.487464 0 -0.11126
   vertex 0.390916 0 -0.311745
   vertex 0.276419 0.276419 -0.311745
  endloop
 endfacet
 facet normal 0.844104 0.349639 -0.406499
  outer loop
   vertex 0.487464 0 -0.11126
   vertex 0.276419 0.276419 -0.311745
   vertex 0.344689 0.344689 -0.11126
  endloop
 endfacet
 facet normal 0.603683 0.250054 -0.756994
  outer loop
   vertex 0.390916 0 -0.311745
   vertex 0.216942 0 -0.450484
   vertex 0.153401 0.153401 -0.450484
  endloop
 endfacet
 facet normal 0.603683 0.250054 -0.756994
  outer loop
   vertex 0.390916 0 -0.311745
   vertex 0.153401 0.153401 -0.450484
   vertex 0.276419 0.276419 -0.311745
  endloop
 endfacet
 facet normal 0.250054 0.603683 0.756994
  outer loop
   vertex 0.153401 0.153401 0.450484
   vertex 0.276419 0.276419 0.311745
   vertex 2.39367e-17 0.390916 0.311745
  endloop
 endfacet
 facet normal 0.250054 0.603683 0.756994
  outer loop
   vertex 0.153401 0.153401 0.450484
   vertex 2.39367e-17 0.390916 0.311745
   vertex 1.32839e-17 0.216942 0.450484
  endloop
 endfacet
 facet normal 0.349639 0.844104 0.406499
  outer loop
   vertex 0.276419 0.276419 0.311745
   vertex 0.344689 0.344689 0.11126
   vertex 2.98486e-17 0.487464 0.11126
  endloop
 endfacet
 facet normal 0.349639 0.844104 0.406499
  outer loop
   vertex 0.276419 0.276419 0.311745
   vertex 2.98486e-17 0.487464 0.11126
   vertex 2.39367e-17 0.390916 0.311745
  endloop
 endfacet
 facet normal 0.382683 0.92388 -0
  outer loop
   vertex 0.344689 0.344689 0.11126
   vertex 0.344689 0.344689 -0.11126
   vertex 2.98486e-17 0.487464 -0.11126
  endloop
 endfacet
 facet normal 0.382683 0.92388 -0
  outer loop
   vertex 0.344689 0.344689 0.11126
   vertex 2.98486e-17 0.487464 -0.11126
   vertex 2.98486e-17 0.487464 0.11126
  endloop
 endfacet
 facet normal 0.349639 0.844104 -0.406499
  outer loop
   vertex 0.344689 0.344689 -0.11126
   vertex 0.276419 0.276419 -0.311745
   vertex 2.39367e-17 0.390916 -0.311745
  endloop
 endfacet
 facet normal 0.349639 0.844104 -0.406499
  outer loop
   vertex 0.344689 0.344689 -0.11126
   vertex 2.39367e-17 0.390916 -0.311745
   vertex 2.98486e-17 0.487464 -0.11126
  endloop
 endfacet
 facet normal 0.250054 0.603683 -0.756994
  outer loop
   vertex 0.276419 0.276419 -0.311745
   vertex 0.153401 0.153401 -0.450484
   vertex 1.32839e-17 0.216942 -0.450484
  endloop
 endfacet
 facet normal 0.250054 0.603683 -0.756994
  outer loop
   vertex 0.276419 0.276419 -0.311745
   vertex 1.32839e-17 0.216942 -0.450484
   vertex 2.39367e-17 0.390916 -0.311745
  endloop
 endfacet
 facet normal -0.250054 0.603683 0.756994
  outer loop
   vertex 1.32839e-17 0.216942 0.450484
   vertex 2.39367e-17 0.390916 0.311745
   vertex -0.276419 0.276419 0.311745
  endloop
 endfacet
 facet normal -0.250054 0.603683 0.756994
  outer loop
   vertex 1.32839e-17 0.216942 0.450484
   vertex -0.276419 0.276419 0.311745
   vertex -0.153401 0.153401 0.450484
  endloop
 endfacet
 facet normal -0.349639 0.844104 0.406499
  outer loop
   vertex 2.39367e-17 0.390916 0.311745
   vertex 2.98486e-17 0.487464 0.11126
   vertex -0.344689 0.344689 0.11126
  endloop
 endfacet
 facet normal -0.349639 0.844104 0.406499
  outer loop
   vertex 2.39367e-17 0.390916 0.311745
   vertex -0.344689 0.344689 0.11126
   vertex -0.276419 0.276419 0.311745
  endloop
 endfacet
 facet normal -0.382683 0.92388 0
  outer loop
   vertex 2.98486e-17 0.487464 0.11126
   vertex 2.98486e-17 0.487464 -0.11126
   vertex -0.344689 0.344689 -0.11126
  endloop
 endfacet
 facet normal -0.382683 0.92388 0
  outer loop
   vertex 2.98486e-17 0.487464 0.11126
   vertex -0.344689 0.344689 -0.11126
   vertex -0.344689 0.344689 0.11126
  endloop
 endfacet
 facet normal -0.349639 0.844104 -0.406499
  outer loop
   vertex 2.98486e-17 0.487464 -0.11126
   vertex 2.39367e-17 0.390916 -0.311745
   vertex -0.276419 0.276419 -0.311745
  endloop
 endfacet
 facet normal -0.349639 0.844104 -0.406499
  outer loop
   vertex 2.98486e-17 0.487464 -0.11126
   vertex -0.276419 0.276419 -0.311745
   vertex -0.344689 0.344689 -0.11126
  endloop
 endfacet
 facet normal -0.250054 0.603683 -0.756994
  outer loop
   vertex 2.39367e-17 0.390916 -0.311745
   vertex 1.32839e-17 0.216942 -0.450484
   vertex -0.153401 0.153401 -0.450484
  endloop
 endfacet
 facet normal -0.250054 0.603683 -0.756994
  outer loop
   vertex 2.39367e-17 0.390916 -0.311745
   vertex -0.153401 0.153401 -0.450484
   vertex -0.276419 0.276419 -0.311745
  endloop
 endfacet
 facet normal -0.603683 0.250054 0.756994
  outer loop
   vertex -0.153401 0.153401 0.450484
   vertex -0.276419 0.276419 0.311745
   vertex -0.390916 4.78734e-17 0.311745
  endloop
 endfacet
 facet normal -0.603683 0.250054 0.756994
  outer loop
   vertex -0.153401 0.153401 0.450484
   vertex -0.390916 4.78734e-17 0.311745
   vertex -0.216942 2.65677e-17 0.450484
  endloop
 endfacet
 facet normal -0.844104 0.349639 0.406499
  outer loop
   vertex -0.276419 0.276419 0.311745
   vertex -0.344689 0.344689 0.11126
   vertex -0.487464 5.96971e-17 0.11126
  endloop
 endfacet
 facet normal -0.844104 0.349639 0.406499
  outer loop
   vertex -0.276419 0.276419 0.311745
   vertex -0.487464 5.96971e-17 0.11126
   vertex -0.390916 4.78734e-17 0.311745
  endloop
 endfacet
 facet normal -0.92388 0.382683 0
  outer loop
   vertex -0.344689 0.344689 0.11126
   vertex -0.344689 0.344689 -0.11126
   vertex -0.487464 5.96971e-17 -0.11126
  endloop
 endfacet
 facet normal -0.92388 0.382683 0
  outer loop
   vertex -0.344689 0.344689 0.11126
   vertex -0.487464 5.96971e-17 -0.11126
   vertex -0.487464 5.96971e-17 0.11126
  endloop
 endfacet
 facet normal -0.844104 0.349639 -0.406499
  outer loop
   vertex -0.344689 0.344689 -0.11126
   vertex -0.276419 0.276419 -0.311745
   vertex -0.390916 4.78734e-17 -0.311745
  endloop
 endfacet
 facet normal -0.844104 0.349639 -0.406499
  outer loop
   vertex -0.344689 0.344689 -0.11126
   vertex -0.390916 4.78734e-17 -0.311745
   vertex -0.487464 5.96971e-17 -0.11126
  endloop
 endfacet
 facet normal -0.603683 0.250054 -0.756994
  outer loop
   vertex -0.276419 0.276419 -0.311745
   vertex -0.153401 0.153401 -0.450484
   vertex -0.216942 2.65677e-17 -0.450484
  endloop
 endfacet
 facet normal -0.603683 0.250054 -0.756994
  outer loop
   vertex -0.276419 0.276419 -0.311745
   vertex -0.216942 2.65677e-17 -0.450484
   vertex -0.390916 4.78734e-17 -0.311745
  endloop
 endfacet
 facet normal -0.603683 -0.250054 0.756994
  outer loop
   vertex -0.216942 2.65677e-17 0.450484
   vertex -0.390916 4.78734e-17 0.311745
   vertex -0.276419 -0.276419 0.311745
  endloop
 endfacet
 facet normal -0.603683 -0.250054 0.756994
  outer loop
   vertex -0.216942 2.65677e-17 0.450484
   vertex -0.276419 -0.276419 0.311745
   vertex -0.153401 -0.153401 0.450484
  endloop
 endfacet
 facet normal -0.844104 -0.349639 0.406499
  outer loop
   vertex -0.390916 4.78734e-17 0.311745
   vertex -0.487464 5.96971e-17 0.11126
   vertex -0.344689 -0.344689 0.11126
  endloop
 endfacet
 facet normal -0.844104 -0.349639 0.406499
  outer loop
   vertex -0.390916 4.78734e-17 0.311745
   vertex -0.344689 -0.344689 0.11126
   vertex -0.276419 -0.276419 0.311745
  endloop
 endfacet
 facet normal -0.92388 -0.382683 0
  outer loop
   vertex -0.487464 5.96971e-17 0.11126
   vertex -0.487464 5.96971e-17 -0.11126
   vertex -0.344689 -0.344689 -0.11126
  endloop
 endfacet
 facet normal -0.92388 -0.382683 0
  outer loop
   vertex -0.487464 5.96971e-17 0.11126
   vertex -0.344689 -0.344689 -0.11126
   vertex -0.344689 -0.344689 0.11126
  endloop
 endfacet
 facet normal -0.844104 -0.349639 -0.406499
  outer loop
   vertex -0.487464 5.96971e-17 -0.11126
   vertex -0.390916 4.78734e-17 -0.311745
   vertex -0.276419 -0.276419 -0.311745
  endloop
 endfacet
 facet normal -0.844104 -0.349639 -0.406499
  outer loop
   vertex -0.487464 5.96971e-17 -0.11126
   vertex -0.276419 -0.276419 -0.311745
   vertex -0.344689 -0.344689 -0.11126
  endloop
 endfacet
 facet normal -0.603683 -0.250054 -0.756994
  outer loop
   vertex -0.390916 4.78734e-17 -0.311745
   vertex -0.216942 2.65677e-17 -0.450484
   vertex -0.153401 -0.153401 -0.450484
  endloop
 endfacet
 facet normal -0.603683 -0.250054 -0.756994
  outer loop
   vertex -0.390916 4.78734e-17 -0.311745
   vertex -0.153401 -0.153401 -0.450484
   vertex -0.276419 -0.276419 -0.311745
  endloop
 endfacet
 facet normal -0.250054 -0.603683 0.756994
  outer loop
   vertex -0.153401 -0.153401 0.450484
   vertex -0.276419 -0.276419 0.311745
   vertex -7.18101e-17 -0.390916 0.311745
  endloop
 endfacet
 facet normal -0.250054 -0.603683 0.756994
  outer loop
   vertex -0.153401 -0.153401 0.450484
   vertex -7.18101e-17 -0.390916 0.311745
   vertex -3.98516e-17 -0.216942 0.450484
  endloop
 endfacet
 facet normal -0.349639 -0.844104 0.406499
  outer loop
   vertex -0.276419 -0.276419 0.311745
   vertex -0.344689 -0.344689 0.11126
   vertex -8.95457e-17 -0.487464 0.11126
  endloop
 endfacet
 facet normal -0.349639 -0.844104 0.406499
  outer loop
   vertex -0.276419 -0.276419 0.311745
   vertex -8.95457e-17 -0.487464 0.11126
   vertex -7.18101e-17 -0.390916 0.311745
  endloop
 endfacet
 facet normal -0.382683 -0.92388 0
  outer loop
   vertex -0.344689 -0.344689 0.11126
   vertex -0.344689 -0.344689 -0.11126
   vertex -8.95457e-17 -0.487464 -0.11126
  endloop
 endfacet
 facet normal -0.382683 -0.92388 0
  outer loop
   vertex -0.344689 -0.344689 0.11126
   vertex -8.95457e-17 -0.487464 -0.11126
   vertex -8.95457e-17 -0.487464 0.11126
  endloop
 endfacet
 facet normal -0.349639 -0.844104 -0.406499
  outer loop
   vertex -0.344689 -0.344689 -0.11126
   vertex -0.276419 -0.276419 -0.311745
   vertex -7.18101e-17 -0.390916 -0.311745
  endloop
 endfacet
 facet normal -0.349639 -0.844104 -0.406499
  outer loop
   vertex -0.344689 -0.344689 -0.11126
   vertex -7.18101e-17 -0.390916 -0.311745
   vertex -8.95457e-17 -0.487464 -0.11126
  endloop
 endfacet
 facet normal -0.250054 -0.603683 -0.756994
  outer loop
   vertex -0.276419 -0.276419 -0.311745
   vertex -0.153401 -0.153401 -0.450484
   vertex -3.98516e-17 -0.216942 -0.450484
  endloop
 endfacet
 facet normal -0.250054 -0.603683 -0.756994
  outer loop
   vertex -0.276419 -0.276419 -0.311745
   vertex -3.98516e-17 -0.216942 -0.450484
   vertex -7.18101e-17 -0.390916 -0.311745
  endloop
 endfacet
 facet normal 0.250054 -0.603683 0.756994
  outer loop
   vertex -3.98516e-17 -0.216942 0.450484
   vertex -7.18101e-17 -0.390916 0.311745
   vertex 0.276419 -0.276419 0.311745
  endloop
 endfacet
 facet normal 0.250054 -0.603683 0.756994
  outer loop
   vertex -3.98516e-17 -0.216942 0.450484
   vertex 0.276419 -0.276419 0.311745
   vertex 0.153401 -0.153401 0.450484
  endloop
 endfacet
 facet normal 0.349639 -0.844104 0.406499
  outer loop
   vertex -7.18101e-17 -0.390916 0.311745
   vertex -8.95457e-17 -0.487464 0.11126
   vertex 0.344689 -0.344689 0.11126
  endloop
 endfacet
 facet normal 0.349639 -0.844104 0.406499
  outer loop
   vertex -7.18101e-17 -0.390916 0.311745
   vertex 0.344689 -0.344689 0.11126
   vertex 0.276419 -0.276419 0.311745
  endloop
 endfacet
 facet normal 0.382683 -0.92388 0
  outer loop
   vertex -8.95457e-17 -0.487464 0.11126
   vertex -8.95457e-17 -0.487464 -0.11126
   vertex 0.344689 -0.344689 -0.11126
  endloop
 endfacet
 facet normal 0.382683 -0.92388 0
  outer loop
   vertex -8.95457e-17 -0.487464 0.11126
   vertex 0.344689 -0.344689 -0.11126
   vertex 0.344689 -0.344689 0.11126
  endloop
 endfacet
 facet normal 0.349639 -0.844104 -0.406499
  outer loop
   vertex -8.95457e-17 -0.487464 -0.11126
   vertex -7.18101e-17 -0.390916 -0.311745
   vertex 0.276419 -0.276419 -0.311745
  endloop
 endfacet
 facet normal 0.349639 -0.844104 -0.406499
  outer loop
   vertex -8.95457e-17 -0.487464 -0.11126
   vertex 0.276419 -0.276419 -0.311745
   vertex 0.344689 -0.344689 -0.11126
  endloop
 endfacet
 facet normal 0.250054 -0.603683 -0.756994
  outer loop
   vertex -7.18101e-17 -0.390916 -0.311745
   vertex -3.98516e-17 -0.216942 -0.450484
   vertex 0.153401 -0.153401 -0.450484
  endloop
 endfacet
 facet normal 0.250054 -0.603683 -0.756994
  outer loop
   vertex -7.18101e-17 -0.390916 -0.311745
   vertex 0.153401 -0.153401 -0.450484
   vertex 0.276419 -0.276419 -0.311745
  endloop
 endfacet
 facet normal 0.603683 -0.250054 0.756994
  outer loop
   vertex 0.153401 -0.153401 0.450484
   vertex 0.276419 -0.276419 0.311745
   vertex 0.390916 0 0.311745
  endloop
 endfacet
 facet normal 0.603683 -0.250054 0.756994
  outer loop
   vertex 0.153401 -0.153401 0.450484
   vertex 0.390916 0 0.311745
   vertex 0.216942 0 0.450484
  endloop
 endfacet
 facet normal 0.844104 -0.349639 0.406499
  outer loop
   vertex 0.276419 -0.276419 0.311745
   vertex 0.344689 -0.344689 0.11126
   vertex 0.487464 0 0.11126
  endloop
 endfacet
 facet normal 0.844104 -0.349639 0.406499
  outer loop
   vertex 0.276419 -0.276419 0.311745
   vertex 0.487464 0 0.11126
   vertex 0.390916 0 0.311745
  endloop
 endfacet
 facet normal 0.92388 -0.382683 0
  outer loop
   vertex 0.344689 -0.344689 0.11126
   vertex 0.344689 -0.344689 -0.11126
   vertex 0.487464 0 -0.11126
  endloop
 endfacet
 facet normal 0.92388 -0.382683 0
  outer loop
   vertex 0.344689 -0.344689 0.11126
   vertex 0.487464 0 -0.11126
   vertex 0.487464 0 0.11126
  endloop
 endfacet
 facet normal 0.844104 -0.349639 -0.406499
  outer loop
   vertex 0.344689 -0.344689 -0.11126
   vertex 0.276419 -0.276419 -0.311745
   vertex 0.390916 0 -0.311745
  endloop
 endfacet
 facet normal 0.844104 -0.349639 -0.406499
  outer loop
   vertex 0.344689 -0.344689 -0.11126
   vertex 0.390916 0 -0.311745
   vertex 0.487464 0 -0.11126
  endloop
 endfacet
 facet normal 0.603683 -0.250054 -0.756994
  outer loop
   vertex 0.276419 -0.276419 -0.311745
   vertex 0.153401 -0.153401 -0.450484
   vertex 0.216942 0 -0.450484
  endloop
 endfacet
 facet normal 0.603683 -0.250054 -0.756994
  outer loop
   vertex 0.276419 -0.276419 -0.311745
   vertex 0.216942 0 -0.450484
   vertex 0.390916 0 -0.311745
  endloop
 endfacet
endsolid
